<svg xmlns="http://www.w3.org/2000/svg" xmlns:xlink="http://www.w3.org/1999/xlink" width="140px" height="140px" viewBox="0 0 74 95" version="1.1">
<g id="surface1">
<path style="stroke:none; fill-rule:nonzero; fill:#f97316; fill-opacity:1;" d="M 71.910156 0.59375 C 72.117188 0.773438 72.207031 0.953125 72.308594 1.207031 C 72.339844 1.285156 72.371094 1.367188 72.40625 1.445312 C 73.535156 4.335938 73.871094 6.828125 73.023438 9.847656 C 72.910156 10.253906 72.800781 10.660156 72.691406 11.066406 C 72.664062 11.164062 72.636719 11.257812 72.613281 11.355469 C 72.464844 11.898438 72.328125 12.441406 72.214844 12.992188 C 71.886719 14.550781 71.125 15.726562 70.085938 16.917969 C 69.921875 17.109375 69.765625 17.300781 69.609375 17.496094 C 69.5625 17.554688 69.515625 17.613281 69.464844 17.675781 C 69.371094 17.792969 69.277344 17.910156 69.183594 18.027344 C 68.226562 19.226562 67.273438 20.074219 65.96875 20.890625 C 65.179688 21.382812 64.492188 21.886719 63.84375 22.558594 C 63.523438 22.890625 63.164062 23.167969 62.800781 23.453125 C 62.589844 23.617188 62.386719 23.785156 62.179688 23.949219 C 62.128906 23.988281 62.078125 24.027344 62.027344 24.070312 C 61.4375 24.507812 61.4375 24.507812 61.089844 25.113281 C 61.085938 25.210938 61.085938 25.210938 61.082031 25.308594 C 61.753906 25.457031 62.398438 25.449219 63.023438 25.160156 C 63.082031 25.136719 63.140625 25.113281 63.199219 25.089844 C 63.402344 24.957031 63.464844 24.734375 63.558594 24.515625 C 63.855469 23.882812 64.238281 23.414062 64.746094 22.9375 C 64.90625 22.769531 65.023438 22.59375 65.152344 22.398438 C 65.707031 21.636719 66.472656 21.230469 67.3125 20.835938 C 67.628906 20.683594 67.890625 20.546875 68.136719 20.296875 C 68.40625 20.03125 68.613281 19.878906 68.996094 19.851562 C 69.246094 19.863281 69.296875 19.890625 69.511719 20.046875 C 69.828125 20.476562 69.84375 20.894531 69.839844 21.40625 C 69.839844 21.472656 69.839844 21.539062 69.839844 21.605469 C 69.828125 22.414062 69.671875 23.164062 69.371094 23.917969 C 69.289062 24.144531 69.226562 24.371094 69.160156 24.601562 C 68.714844 26.046875 67.46875 27.074219 66.195312 27.808594 C 65.683594 28.117188 65.242188 28.679688 65.039062 29.242188 C 65.058594 29.53125 65.234375 29.722656 65.402344 29.953125 C 67.535156 32.929688 68.53125 36.464844 68.820312 40.070312 C 68.878906 40.804688 68.980469 41.5 69.207031 42.203125 C 69.46875 43.085938 69.476562 44.003906 69.472656 44.917969 C 69.472656 44.976562 69.472656 45.039062 69.472656 45.101562 C 69.46875 46.554688 69.304688 47.960938 68.894531 49.359375 C 68.832031 49.652344 68.894531 49.796875 68.996094 50.070312 C 69.3125 51.132812 69.144531 52.359375 69.066406 53.449219 C 69.054688 53.65625 69.039062 53.859375 69.027344 54.0625 C 68.976562 54.855469 68.871094 55.578125 68.625 56.332031 C 68.601562 56.398438 68.582031 56.464844 68.558594 56.53125 C 68.5 56.703125 68.441406 56.871094 68.375 57.039062 C 68.355469 57.097656 68.332031 57.15625 68.308594 57.214844 C 67.886719 58.316406 67.421875 59.460938 66.46875 60.210938 C 66.234375 60.40625 66.039062 60.628906 65.851562 60.875 C 65.816406 60.917969 65.78125 60.964844 65.746094 61.007812 C 65.351562 61.523438 64.988281 62.054688 64.640625 62.597656 C 64.554688 62.730469 64.46875 62.863281 64.378906 62.996094 C 63.667969 64.054688 63.667969 64.054688 63.28125 65.257812 C 63.082031 66.339844 62.53125 67.386719 62.0625 68.378906 C 61.363281 69.851562 60.9375 71.390625 60.574219 72.976562 C 60.40625 73.714844 60.222656 74.449219 60.011719 75.179688 C 59.988281 75.253906 59.964844 75.332031 59.945312 75.40625 C 59.839844 75.773438 59.730469 76.140625 59.621094 76.507812 C 59.390625 77.285156 59.21875 78.050781 59.113281 78.855469 C 59.0625 79.253906 58.96875 79.636719 58.867188 80.019531 C 58.152344 82.816406 58.242188 86.589844 59.214844 89.289062 C 59.28125 89.484375 59.320312 89.667969 59.355469 89.871094 C 59.433594 90.253906 59.664062 90.472656 59.9375 90.738281 C 60.035156 90.835938 60.128906 90.933594 60.222656 91.03125 C 60.3125 91.117188 60.398438 91.203125 60.484375 91.289062 C 61.113281 91.917969 61.679688 92.828125 61.679688 93.738281 C 61.386719 93.746094 61.089844 93.75 60.796875 93.753906 C 60.671875 93.753906 60.671875 93.753906 60.546875 93.757812 C 59.683594 93.765625 58.832031 93.605469 58.171875 93.011719 C 57.636719 92.445312 57.480469 91.84375 57.332031 91.09375 C 57.253906 90.765625 57.148438 90.347656 56.898438 90.101562 C 56.75 90.089844 56.597656 90.078125 56.445312 90.070312 C 56.300781 90.027344 56.300781 90.027344 56.210938 89.894531 C 56.152344 89.722656 56.132812 89.589844 56.132812 89.40625 C 56.132812 89.324219 56.132812 89.324219 56.132812 89.242188 C 56.152344 89.0625 56.152344 89.0625 56.226562 88.878906 C 56.332031 88.515625 56.324219 88.167969 56.320312 87.789062 C 56.320312 87.707031 56.320312 87.625 56.320312 87.539062 C 56.320312 87.265625 56.320312 86.996094 56.320312 86.722656 C 56.320312 86.53125 56.320312 86.34375 56.320312 86.152344 C 56.320312 85.757812 56.320312 85.359375 56.316406 84.960938 C 56.316406 84.503906 56.316406 84.042969 56.316406 83.585938 C 56.316406 83.144531 56.316406 82.703125 56.316406 82.257812 C 56.316406 82.070312 56.316406 81.882812 56.316406 81.695312 C 56.316406 81.433594 56.3125 81.171875 56.3125 80.910156 C 56.3125 80.832031 56.3125 80.753906 56.3125 80.675781 C 56.3125 80.320312 56.300781 79.984375 56.226562 79.636719 C 56.195312 79.070312 56.253906 78.519531 56.332031 77.960938 C 56.515625 76.582031 56.644531 75.210938 56.734375 73.820312 C 56.753906 73.535156 56.773438 73.246094 56.792969 72.960938 C 56.910156 71.265625 56.988281 69.582031 56.980469 67.882812 C 56.980469 67.726562 56.980469 67.566406 56.976562 67.410156 C 56.976562 67.035156 56.976562 66.65625 56.976562 66.277344 C 56.914062 66.28125 56.855469 66.289062 56.792969 66.292969 C 56.230469 66.339844 55.671875 66.359375 55.109375 66.351562 C 55.121094 66.460938 55.121094 66.460938 55.132812 66.570312 C 55.464844 69.355469 55.464844 69.355469 55.480469 70.582031 C 55.484375 70.671875 55.484375 70.671875 55.484375 70.765625 C 55.492188 71.601562 55.4375 72.4375 55.394531 73.273438 C 55.355469 74.046875 55.324219 74.816406 55.316406 75.585938 C 55.316406 75.648438 55.3125 75.714844 55.3125 75.777344 C 55.3125 76.273438 55.421875 76.652344 55.613281 77.109375 C 55.992188 78.039062 55.933594 79.066406 55.628906 80.007812 C 55.605469 80.058594 55.582031 80.105469 55.554688 80.15625 C 55.503906 81.144531 55.578125 82.148438 55.613281 83.136719 C 55.621094 83.425781 55.628906 83.714844 55.640625 84.003906 C 55.695312 85.71875 55.777344 87.429688 55.996094 89.132812 C 56.003906 89.226562 56.015625 89.320312 56.027344 89.417969 C 56.148438 90.363281 56.414062 91.234375 56.765625 92.113281 C 56.816406 92.246094 56.871094 92.382812 56.921875 92.515625 C 56.945312 92.570312 56.96875 92.628906 56.992188 92.6875 C 57.246094 93.382812 57.175781 94.101562 56.898438 94.777344 C 56.652344 94.664062 56.492188 94.53125 56.300781 94.332031 C 56.300781 94.550781 56.300781 94.773438 56.300781 95 C 54.703125 94.71875 54.703125 94.71875 54.210938 94.183594 C 53.851562 93.640625 53.664062 93.144531 53.679688 92.484375 C 53.679688 92.410156 53.679688 92.410156 53.683594 92.332031 C 53.683594 92.207031 53.6875 92.082031 53.6875 91.957031 C 53.644531 91.9375 53.597656 91.921875 53.550781 91.902344 C 53.355469 91.789062 53.324219 91.71875 53.242188 91.511719 C 53.117188 90.816406 53.1875 90.128906 53.257812 89.433594 C 53.488281 87.054688 53.363281 84.75 53.09375 82.382812 C 53.085938 82.324219 53.078125 82.269531 53.070312 82.210938 C 53.03125 81.851562 52.988281 81.496094 52.941406 81.140625 C 52.925781 81.011719 52.925781 81.011719 52.910156 80.878906 C 52.839844 80.351562 52.714844 79.859375 52.5625 79.351562 C 52.433594 78.898438 52.414062 78.457031 52.40625 77.988281 C 52.378906 76.949219 52.136719 76.054688 51.816406 75.074219 C 51.753906 74.890625 51.695312 74.703125 51.636719 74.519531 C 51.613281 74.449219 51.613281 74.449219 51.589844 74.375 C 49.804688 68.816406 49.804688 68.816406 49.804688 67.019531 C 49.746094 67.027344 49.6875 67.03125 49.625 67.039062 C 46.984375 67.332031 44.46875 67.386719 41.964844 66.390625 C 41.359375 66.15625 40.730469 66 40.109375 65.832031 C 39.402344 65.640625 38.707031 65.433594 38.027344 65.152344 C 37.613281 64.992188 37.304688 65 36.886719 65.164062 C 36.378906 65.421875 36.039062 65.777344 35.691406 66.222656 C 35.601562 66.335938 35.511719 66.445312 35.421875 66.558594 C 35.378906 66.613281 35.335938 66.667969 35.292969 66.722656 C 35.085938 66.976562 34.863281 67.214844 34.644531 67.457031 C 34.507812 67.601562 34.375 67.75 34.246094 67.902344 C 33.765625 68.449219 33.273438 68.988281 32.75 69.496094 C 32.625 69.625 32.511719 69.753906 32.398438 69.890625 C 32.082031 70.253906 31.722656 70.570312 31.367188 70.890625 C 31.195312 71.046875 31.03125 71.207031 30.867188 71.375 C 30.535156 71.710938 30.164062 71.996094 29.792969 72.289062 C 29.753906 72.324219 29.710938 72.355469 29.667969 72.390625 C 29.238281 72.730469 28.8125 73.066406 28.355469 73.375 C 27.277344 74.117188 26.324219 75.167969 26.082031 76.488281 C 25.929688 77.769531 26.410156 78.933594 26.832031 80.117188 C 26.851562 80.183594 26.875 80.246094 26.898438 80.3125 C 28.253906 84.800781 28.253906 84.800781 30.765625 88.617188 C 30.828125 88.675781 30.886719 88.730469 30.953125 88.792969 C 31.1875 89.003906 31.425781 89.214844 31.671875 89.417969 C 32.492188 90.113281 33.125 90.859375 33.230469 91.957031 C 30.105469 92.03125 30.105469 92.03125 29.023438 91.132812 C 28.460938 90.59375 28.289062 90.03125 28.132812 89.289062 C 28.039062 88.917969 27.898438 88.613281 27.648438 88.316406 C 27.378906 88.207031 27.164062 88.269531 26.882812 88.320312 C 26.554688 87.804688 26.285156 87.28125 26.042969 86.71875 C 25.988281 86.601562 25.988281 86.601562 25.933594 86.476562 C 25.722656 85.988281 25.519531 85.496094 25.328125 85 C 25.066406 84.328125 24.789062 83.695312 24.425781 83.074219 C 23.492188 81.46875 22.792969 79.707031 22.039062 78.011719 C 21.757812 77.382812 21.480469 76.753906 21.199219 76.128906 C 21.140625 76.003906 21.085938 75.878906 21.03125 75.753906 C 20.953125 75.582031 20.878906 75.410156 20.800781 75.238281 C 20.765625 75.160156 20.765625 75.160156 20.730469 75.085938 C 20.621094 74.84375 20.507812 74.609375 20.371094 74.382812 C 20.160156 74.007812 20.179688 73.671875 20.234375 73.253906 C 20.308594 73.035156 20.40625 72.851562 20.535156 72.660156 C 20.578125 72.597656 20.621094 72.53125 20.664062 72.464844 C 20.898438 72.222656 21.160156 72.039062 21.429688 71.84375 C 21.863281 71.523438 22.253906 71.191406 22.625 70.804688 C 23 70.433594 23 70.433594 23.125 70.320312 C 24.433594 69.09375 25.527344 67.292969 25.910156 65.535156 C 25.910156 65.4375 25.910156 65.339844 25.910156 65.238281 C 25.867188 65.285156 25.820312 65.335938 25.773438 65.386719 C 24.617188 66.582031 23.238281 67.429688 21.699219 68.058594 C 21.175781 68.289062 20.785156 68.636719 20.359375 69.011719 C 20.105469 69.234375 19.839844 69.441406 19.574219 69.648438 C 19.191406 69.945312 18.8125 70.246094 18.4375 70.550781 C 18.007812 70.898438 17.574219 71.238281 17.132812 71.574219 C 16.945312 71.71875 16.753906 71.863281 16.566406 72.011719 C 15.976562 72.46875 15.386719 72.921875 14.785156 73.359375 C 14.695312 73.425781 14.695312 73.425781 14.601562 73.492188 C 14.308594 73.710938 14.007812 73.917969 13.703125 74.121094 C 13.328125 74.375 13.023438 74.695312 12.714844 75.023438 C 12.542969 75.183594 12.542969 75.183594 12.394531 75.183594 C 12.394531 75.234375 12.394531 75.28125 12.394531 75.332031 C 12.300781 75.421875 12.300781 75.421875 12.164062 75.53125 C 11.695312 75.925781 11.289062 76.382812 10.875 76.832031 C 10.769531 76.945312 10.664062 77.058594 10.558594 77.171875 C 8.886719 78.972656 7.746094 81.328125 6.644531 83.496094 C 6.609375 83.570312 6.570312 83.644531 6.53125 83.71875 C 5.628906 85.507812 4.886719 87.335938 4.40625 89.285156 C 4.390625 89.339844 4.378906 89.390625 4.363281 89.445312 C 4.160156 90.242188 4.148438 91.039062 4.148438 91.855469 C 4.136719 92.597656 4.023438 93.199219 3.492188 93.746094 C 3.410156 93.832031 3.410156 93.832031 3.332031 93.914062 C 3.273438 93.972656 3.273438 93.972656 3.210938 94.035156 C 2.984375 93.921875 2.941406 93.734375 2.835938 93.515625 C 2.652344 93.773438 2.652344 93.773438 2.464844 94.035156 C 0.914062 93.3125 0.914062 93.3125 0.589844 92.496094 C 0.453125 92.003906 0.441406 91.402344 0.601562 90.914062 C 0.695312 90.625 0.65625 90.441406 0.523438 90.175781 C 0.546875 89.632812 0.695312 89.214844 0.917969 88.71875 C 0.953125 88.644531 0.984375 88.570312 1.015625 88.496094 C 1.085938 88.335938 1.15625 88.179688 1.226562 88.023438 C 1.410156 87.609375 1.589844 87.199219 1.769531 86.789062 C 1.804688 86.707031 1.839844 86.625 1.875 86.542969 C 2.136719 85.945312 2.378906 85.34375 2.613281 84.734375 C 2.992188 83.753906 3.433594 82.804688 3.890625 81.855469 C 3.960938 81.707031 4.03125 81.558594 4.101562 81.410156 C 4.589844 80.394531 5.074219 79.386719 5.632812 78.40625 C 6.09375 77.589844 6.417969 76.738281 6.71875 75.851562 C 6.757812 75.746094 6.792969 75.640625 6.832031 75.535156 C 6.949219 75.183594 7.070312 74.835938 7.1875 74.488281 C 7.214844 74.40625 7.214844 74.40625 7.242188 74.320312 C 7.472656 73.648438 7.679688 72.976562 7.859375 72.292969 C 8.09375 71.429688 8.511719 70.78125 9.300781 70.324219 C 9.433594 70.253906 9.570312 70.183594 9.707031 70.113281 C 10.15625 69.863281 10.566406 69.554688 10.976562 69.246094 C 11.019531 69.214844 11.066406 69.179688 11.109375 69.148438 C 11.773438 68.648438 12.390625 68.109375 12.992188 67.539062 C 13.070312 67.46875 13.070312 67.46875 13.152344 67.394531 C 15.148438 65.535156 16.128906 62.785156 16.277344 60.117188 C 16.289062 59.707031 16.292969 59.300781 16.292969 58.890625 C 16.292969 58.835938 16.292969 58.78125 16.292969 58.722656 C 16.292969 58.09375 16.285156 57.472656 16.203125 56.847656 C 16.015625 55.402344 16.132812 53.980469 16.351562 52.546875 C 16.304688 52.550781 16.257812 52.550781 16.210938 52.554688 C 15.773438 52.5625 15.414062 52.519531 15.003906 52.371094 C 14.953125 52.355469 14.90625 52.335938 14.855469 52.320312 C 14.496094 52.195312 14.496094 52.195312 14.410156 52.027344 C 14.53125 51.964844 14.53125 51.964844 14.648438 51.902344 C 14.910156 51.753906 15.101562 51.582031 15.308594 51.359375 C 15.378906 51.289062 15.445312 51.222656 15.519531 51.152344 C 16.058594 50.507812 16.355469 49.65625 16.65625 48.886719 C 17.585938 46.519531 19.679688 45.300781 21.921875 44.308594 C 22.554688 44.035156 23.203125 43.8125 23.863281 43.609375 C 23.941406 43.582031 24.023438 43.558594 24.105469 43.53125 C 24.585938 43.386719 25.039062 43.296875 25.539062 43.269531 C 26.382812 43.210938 27.136719 43.070312 27.9375 42.792969 C 29.371094 42.296875 31.011719 42.238281 32.488281 42.601562 C 32.90625 42.695312 33.316406 42.703125 33.742188 42.710938 C 33.921875 42.71875 34.101562 42.722656 34.28125 42.726562 C 34.375 42.730469 34.46875 42.730469 34.566406 42.734375 C 35.074219 42.746094 35.582031 42.761719 36.089844 42.777344 C 36.144531 42.777344 36.195312 42.78125 36.25 42.78125 C 37.5 42.820312 38.742188 42.890625 39.988281 42.96875 C 40.152344 42.976562 40.320312 42.988281 40.484375 42.996094 C 40.792969 43.015625 41.105469 43.035156 41.414062 43.054688 C 41.550781 43.0625 41.550781 43.0625 41.691406 43.070312 C 42.046875 43.09375 42.398438 43.117188 42.75 43.160156 C 43.199219 43.214844 43.652344 43.207031 44.105469 43.207031 C 44.25 43.207031 44.25 43.207031 44.398438 43.207031 C 44.605469 43.207031 44.8125 43.207031 45.019531 43.203125 C 45.28125 43.203125 45.539062 43.203125 45.796875 43.207031 C 46.761719 43.207031 47.726562 43.203125 48.691406 43.171875 C 48.757812 43.167969 48.828125 43.167969 48.898438 43.167969 C 49.308594 43.148438 49.585938 43.070312 49.957031 42.898438 C 50.171875 42.859375 50.171875 42.859375 50.378906 42.839844 C 50.492188 42.828125 50.492188 42.828125 50.609375 42.8125 C 50.765625 42.800781 50.925781 42.785156 51.082031 42.769531 C 51.808594 42.695312 52.246094 42.449219 52.839844 42.046875 C 53.148438 41.851562 53.476562 41.703125 53.804688 41.554688 C 53.941406 41.492188 54.074219 41.429688 54.207031 41.367188 C 54.269531 41.335938 54.335938 41.308594 54.398438 41.277344 C 54.902344 41.0625 54.902344 41.0625 55.332031 40.746094 C 55.300781 40.496094 55.222656 40.261719 55.144531 40.023438 C 54.96875 39.4375 54.953125 38.878906 54.949219 38.269531 C 54.949219 38.210938 54.949219 38.152344 54.949219 38.089844 C 54.949219 37.84375 54.953125 37.640625 55.035156 37.40625 C 54.976562 37.390625 54.917969 37.371094 54.855469 37.355469 C 54.5625 37.25 54.296875 37.117188 54.023438 36.96875 C 52.980469 36.5 51.261719 36.804688 50.199219 37.117188 C 49.582031 37.285156 48.945312 37.15625 48.394531 36.847656 C 48.078125 36.628906 47.898438 36.425781 47.804688 36.042969 C 47.796875 35.945312 47.796875 35.945312 47.789062 35.847656 C 47.710938 35.839844 47.710938 35.839844 47.632812 35.832031 C 47.332031 35.75 47.191406 35.613281 46.96875 35.402344 C 46.847656 35.039062 46.882812 34.667969 46.894531 34.289062 C 46.894531 34.195312 46.894531 34.195312 46.894531 34.097656 C 46.910156 33.78125 46.949219 33.609375 47.183594 33.390625 C 47.222656 33.355469 47.265625 33.320312 47.308594 33.285156 C 47.4375 33.167969 47.4375 33.167969 47.515625 32.925781 C 47.796875 32.328125 48.351562 32.03125 48.921875 31.738281 C 50.148438 31.039062 51.113281 29.792969 51.898438 28.648438 C 51.898438 28.597656 51.898438 28.550781 51.898438 28.5 C 51.78125 28.421875 51.664062 28.351562 51.542969 28.28125 C 49.902344 27.265625 48.992188 25.625 48.445312 23.816406 C 48.417969 23.730469 48.390625 23.648438 48.363281 23.5625 C 48.316406 23.402344 48.269531 23.238281 48.230469 23.078125 C 48.160156 22.839844 48.09375 22.679688 47.941406 22.488281 C 47.632812 22.34375 47.320312 22.28125 46.988281 22.222656 C 46.683594 22.164062 46.382812 22.082031 46.082031 22.003906 C 45.953125 21.972656 45.820312 21.9375 45.691406 21.902344 C 45.625 21.886719 45.558594 21.871094 45.492188 21.851562 C 45.359375 21.820312 45.226562 21.785156 45.09375 21.753906 C 43.359375 21.320312 41.910156 20.625 40.921875 19.074219 C 40.484375 18.347656 39.859375 17.273438 39.964844 16.40625 C 39.984375 16.332031 40.003906 16.257812 40.023438 16.179688 C 40.097656 16.179688 40.171875 16.179688 40.25 16.179688 C 40.296875 16.277344 40.347656 16.378906 40.398438 16.476562 C 40.449219 16.578125 40.449219 16.578125 40.5 16.679688 C 40.589844 16.855469 40.675781 17.03125 40.757812 17.210938 C 41.050781 17.820312 41.355469 18.351562 41.816406 18.851562 C 41.871094 18.914062 41.925781 18.976562 41.984375 19.039062 C 42.832031 19.953125 44.089844 20.585938 45.34375 20.644531 C 45.5625 20.644531 45.78125 20.648438 45.996094 20.632812 C 46.085938 20.5625 46.085938 20.5625 46.078125 20.425781 C 46.039062 19.945312 45.878906 19.648438 45.605469 19.253906 C 44.121094 17.019531 42.449219 14.066406 42.785156 11.28125 C 42.917969 10.675781 43.113281 10.085938 43.308594 9.5 C 43.375 9.308594 43.4375 9.113281 43.496094 8.917969 C 43.636719 8.472656 43.785156 8.101562 44.054688 7.71875 C 44.105469 7.742188 44.15625 7.769531 44.207031 7.792969 C 44.222656 8.289062 44.152344 8.746094 44.0625 9.230469 C 43.746094 10.902344 43.835938 12.234375 44.429688 13.828125 C 44.453125 13.886719 44.472656 13.945312 44.496094 14.007812 C 45.4375 16.660156 45.4375 16.660156 46.96875 19 C 47.027344 19.074219 47.085938 19.148438 47.148438 19.226562 C 48.050781 20.355469 49.242188 21.214844 50.707031 21.425781 C 50.804688 21.433594 50.902344 21.441406 51 21.449219 C 51.054688 21.453125 51.105469 21.460938 51.160156 21.464844 C 51.648438 21.496094 52.027344 21.363281 52.417969 21.078125 C 53.261719 20.199219 53.238281 18.925781 53.296875 17.792969 C 53.300781 17.714844 53.304688 17.632812 53.308594 17.550781 C 53.335938 17.066406 53.359375 16.585938 53.378906 16.101562 C 53.390625 15.898438 53.398438 15.695312 53.410156 15.496094 C 53.425781 15.21875 53.433594 14.941406 53.441406 14.667969 C 53.445312 14.523438 53.453125 14.382812 53.460938 14.238281 C 53.46875 13.523438 53.199219 13.199219 52.71875 12.691406 C 52.558594 12.480469 52.414062 12.265625 52.269531 12.046875 C 52.234375 11.988281 52.195312 11.933594 52.15625 11.875 C 51.273438 10.53125 50.578125 9.128906 50.179688 7.570312 C 50.152344 7.46875 50.152344 7.46875 50.125 7.363281 C 50.019531 6.910156 50.011719 6.453125 50.007812 5.988281 C 50.003906 5.925781 50.003906 5.859375 50.003906 5.792969 C 50.003906 5.414062 50.046875 5.15625 50.253906 4.824219 C 50.328125 4.847656 50.402344 4.875 50.476562 4.898438 C 50.53125 5.03125 50.53125 5.03125 50.570312 5.207031 C 50.585938 5.273438 50.601562 5.339844 50.621094 5.40625 C 50.636719 5.480469 50.652344 5.550781 50.667969 5.625 C 51.171875 7.65625 51.929688 9.71875 53.167969 11.429688 C 53.203125 11.484375 53.242188 11.539062 53.28125 11.59375 C 53.5625 11.960938 53.921875 12.179688 54.359375 12.320312 C 54.660156 12.351562 54.886719 12.296875 55.136719 12.125 C 55.363281 11.921875 55.539062 11.703125 55.722656 11.460938 C 55.796875 11.367188 55.867188 11.277344 55.941406 11.183594 C 55.976562 11.136719 56.011719 11.089844 56.050781 11.042969 C 56.671875 10.246094 56.671875 10.246094 56.925781 9.992188 C 57.296875 9.609375 57.445312 9.183594 57.617188 8.691406 C 57.648438 8.605469 57.675781 8.519531 57.707031 8.433594 C 57.804688 8.167969 57.898438 7.898438 57.992188 7.628906 C 58.085938 7.363281 58.179688 7.09375 58.277344 6.824219 C 58.335938 6.65625 58.394531 6.492188 58.453125 6.324219 C 58.480469 6.246094 58.507812 6.171875 58.535156 6.09375 C 58.570312 5.996094 58.570312 5.996094 58.605469 5.894531 C 58.703125 5.691406 58.824219 5.566406 58.992188 5.417969 C 59.222656 5.648438 59.210938 5.921875 59.214844 6.234375 C 59.179688 6.535156 59.121094 6.828125 59.054688 7.125 C 59.039062 7.207031 59.023438 7.289062 59.003906 7.371094 C 58.6875 8.835938 58.277344 10.277344 57.300781 11.453125 C 57.132812 11.65625 56.972656 11.863281 56.8125 12.070312 C 56.726562 12.183594 56.636719 12.296875 56.550781 12.40625 C 56.464844 12.515625 56.378906 12.625 56.292969 12.738281 C 56.152344 12.914062 56.152344 12.914062 55.980469 13.085938 C 55.285156 13.839844 55.277344 14.808594 55.164062 15.785156 C 55.140625 15.976562 55.117188 16.164062 55.089844 16.351562 C 55.03125 16.824219 54.972656 17.296875 54.917969 17.769531 C 54.867188 18.167969 54.816406 18.566406 54.765625 18.964844 C 54.730469 19.238281 54.695312 19.507812 54.660156 19.78125 C 54.652344 19.84375 54.644531 19.90625 54.636719 19.96875 C 54.445312 20.953125 54.445312 20.953125 54.585938 21.894531 C 54.660156 21.917969 54.734375 21.945312 54.808594 21.96875 C 54.945312 21.453125 54.988281 20.953125 55.015625 20.421875 C 55.035156 20.1875 55.035156 20.1875 55.109375 20.039062 C 55.332031 20.113281 55.332031 20.113281 55.414062 20.253906 C 55.53125 20.65625 55.566406 21.066406 55.621094 21.480469 C 55.632812 21.582031 55.632812 21.582031 55.648438 21.6875 C 55.65625 21.746094 55.664062 21.808594 55.671875 21.871094 C 55.75 22.253906 55.953125 22.441406 56.226562 22.710938 C 56.671875 23.171875 56.925781 23.617188 56.976562 24.269531 C 56.953125 24.394531 56.929688 24.515625 56.898438 24.640625 C 58.085938 24.753906 58.085938 24.753906 59.144531 24.3125 C 59.402344 24.066406 59.632812 23.804688 59.847656 23.523438 C 59.960938 23.378906 59.960938 23.378906 60.179688 23.183594 C 60.433594 22.773438 60.367188 22.339844 60.347656 21.867188 C 60.3125 20.707031 60.3125 20.707031 60.484375 20.1875 C 60.621094 20.226562 60.621094 20.226562 60.78125 20.335938 C 60.871094 20.535156 60.945312 20.722656 61.011719 20.929688 C 61.140625 21.363281 61.140625 21.363281 61.457031 21.671875 C 62.0625 21.691406 62.359375 21.386719 62.800781 21.003906 C 63.636719 20.296875 64.460938 19.640625 65.488281 19.222656 C 65.386719 18.890625 65.246094 18.753906 64.964844 18.554688 C 64.289062 18.214844 63.566406 17.976562 62.851562 17.734375 C 62.042969 17.457031 61.242188 17.171875 60.445312 16.851562 C 59.554688 16.496094 58.671875 16.207031 57.710938 16.109375 C 57.0625 16.035156 56.746094 15.785156 56.347656 15.285156 C 56.066406 14.878906 55.984375 14.601562 56.003906 14.101562 C 56.171875 14.113281 56.171875 14.113281 56.378906 14.175781 C 56.523438 14.351562 56.523438 14.351562 56.660156 14.570312 C 56.925781 14.941406 57.109375 15.199219 57.570312 15.289062 C 57.824219 15.296875 58.078125 15.296875 58.332031 15.289062 C 59.414062 15.269531 60.378906 15.582031 61.378906 15.957031 C 61.988281 16.1875 62.691406 16.335938 63.332031 16.128906 C 63.609375 15.960938 63.761719 15.742188 63.84375 15.4375 C 63.738281 14.847656 63.507812 14.269531 63.3125 13.707031 C 63.269531 13.578125 63.269531 13.578125 63.222656 13.445312 C 63.160156 13.265625 63.097656 13.085938 63.035156 12.90625 C 62.941406 12.636719 62.847656 12.363281 62.753906 12.09375 C 62.46875 11.265625 62.175781 10.445312 61.84375 9.636719 C 61.820312 9.570312 61.792969 9.507812 61.769531 9.441406 C 61.539062 8.886719 61.230469 8.390625 60.90625 7.886719 C 60.324219 6.976562 59.824219 6.003906 59.886719 4.898438 C 59.996094 4.863281 59.996094 4.863281 60.109375 4.824219 C 60.144531 4.898438 60.183594 4.972656 60.21875 5.046875 C 60.636719 5.910156 61.089844 6.722656 61.714844 7.453125 C 62.511719 8.402344 63.089844 9.554688 63.421875 10.746094 C 63.5625 11.21875 63.78125 11.648438 63.992188 12.09375 C 65.222656 14.671875 65.222656 14.671875 65.539062 15.964844 C 65.652344 16.433594 65.808594 16.746094 66.160156 17.078125 C 66.316406 17.226562 66.421875 17.378906 66.539062 17.558594 C 66.699219 17.777344 66.726562 17.804688 67.007812 17.867188 C 67.652344 17.734375 68.007812 17.433594 68.398438 16.921875 C 68.59375 16.621094 68.765625 16.3125 68.941406 16.003906 C 69.039062 15.832031 69.136719 15.660156 69.234375 15.484375 C 69.285156 15.402344 69.332031 15.316406 69.382812 15.230469 C 69.570312 14.902344 69.773438 14.582031 69.976562 14.257812 C 71.089844 12.464844 71.304688 10.414062 70.824219 8.378906 C 70.765625 8.144531 70.703125 7.910156 70.636719 7.675781 C 70.589844 7.5 70.542969 7.320312 70.496094 7.144531 C 70.316406 6.464844 70.09375 5.914062 69.667969 5.34375 C 69.589844 5.230469 69.507812 5.113281 69.429688 5 C 69.351562 4.890625 69.273438 4.785156 69.191406 4.675781 C 69.152344 4.617188 69.109375 4.5625 69.066406 4.5 C 68.734375 4.050781 68.390625 3.613281 68.027344 3.191406 C 67.96875 3.121094 67.910156 3.050781 67.847656 2.980469 C 67.472656 2.546875 67.113281 2.238281 66.613281 1.960938 C 66.5625 1.925781 66.511719 1.890625 66.457031 1.855469 C 66.457031 1.78125 66.457031 1.707031 66.457031 1.632812 C 66.570312 1.640625 66.683594 1.648438 66.796875 1.65625 C 66.894531 1.664062 66.894531 1.664062 66.992188 1.667969 C 68.425781 1.921875 69.6875 3.410156 70.492188 4.527344 C 70.519531 4.570312 70.550781 4.609375 70.582031 4.652344 C 71.183594 5.503906 72.058594 6.796875 72.058594 7.867188 C 72.109375 7.867188 72.15625 7.867188 72.207031 7.867188 C 72.597656 6.332031 72.480469 4.8125 72.175781 3.277344 C 72.09375 2.828125 72.027344 2.375 71.960938 1.921875 C 71.945312 1.832031 71.933594 1.742188 71.917969 1.648438 C 71.90625 1.566406 71.894531 1.480469 71.882812 1.394531 C 71.871094 1.320312 71.859375 1.246094 71.847656 1.171875 C 71.835938 0.960938 71.859375 0.796875 71.910156 0.59375 Z M 53.316406 23.304688 C 53.410156 23.585938 53.539062 23.664062 53.773438 23.847656 C 54.027344 24.046875 54.273438 24.246094 54.511719 24.464844 C 54.585938 24.523438 54.660156 24.582031 54.734375 24.640625 C 54.808594 24.617188 54.882812 24.589844 54.957031 24.566406 C 55.023438 24.28125 55.046875 24.089844 54.964844 23.804688 C 54.753906 23.53125 54.539062 23.449219 54.210938 23.378906 C 53.914062 23.34375 53.617188 23.320312 53.316406 23.304688 Z M 53.316406 23.304688 "/>
</g>
</svg>
