<?xml version='1.0' encoding='utf-8'?>
<svg xmlns="http://www.w3.org/2000/svg" viewBox="0 0 263.01999 150.27" id="svg2" height="96px" width="96px" version="1.0"> <metadata id="metadata14"> </metadata> <defs id="defs4"> <clipPath id="clipEmfPath1" clipPathUnits="userSpaceOnUse"> <path id="path7" d="m -0.449699,1.1992 932.375699,0 0,532.4438 -932.375699,0 z"/> </clipPath> <pattern y="0" x="0" height="6" width="6" patternUnits="userSpaceOnUse" id="EMFhbasepattern"/> </defs> <path transform="scale(0.28222222,0.28222222)" id="path10" d="m 353.613,497.629 c -3.185,4.31 -7.607,8.657 0.937,13.904 l 3.485,-8.845 z m 24.659,-1.761 -11.992,11.392 c 0,6.034 1.236,9.519 5.696,11.393 l 0.937,-12.03 z m 1.611,-36.575 c -1.499,1.798 -1.386,4.571 -4.459,5.396 l -2.211,5.396 3.185,6.633 18.663,-8.544 c -4.422,-4.422 -10.456,-6.333 -15.178,-8.881 z m 31.442,-29.343 c -3.298,0.374 -4.797,3.635 -7.72,4.609 l 2.511,4.759 -2.211,2.849 c 0.974,5.471 -1.574,7.157 -6.933,10.418 l 5.996,3.485 1.574,3.185 c 8.544,-8.244 12.966,-19.337 10.755,-28.518 -1.611,-0.712 -2.886,-0.9 -3.972,-0.787 z M 0.0749498,1.83627 C 7.08276,-0.0374749 45.0823,32.0785 70.7526,40.8851 c 5.3215,3.1104 8.9565,1.9113 14.278,5.0217 6.1084,-3.1479 10.5304,-0.9369 18.2874,2.6232 10.119,-0.0749 20.574,5.5463 31.329,7.8323 20.162,5.6962 41.335,12.7414 58.461,23.1595 12.217,-1.1243 68.392,39.0862 130.263,50.9662 l -5.884,2.923 c 15.253,9.144 32.454,16.301 45.72,27.431 7.158,0.225 14.015,-1.199 21.548,0.675 16.302,-5.846 31.629,-3.71 47.968,-5.247 27.544,-19.674 42.459,-41.372 63.67,-62.0206 9.144,-12.6665 15.927,-25.6328 27.356,-37.9621 7.196,-6.3332 16.377,-8.6942 24.546,-13.0412 22.223,-10.8678 44.408,-26.0826 66.256,-31.9662 4.422,2.2485 0.075,2.6608 -0.562,5.2465 -0.637,2.6233 2.473,4.497 -2.661,11.0177 7.608,0.9743 9.894,1.9112 4.872,7.8697 30.28,3.3353 57.262,-1.3116 85.93,-1.9862 46.319,-10.418 127.002,-23.1595 136.034,-16.9012 -14.166,12.067 -58.948,13.491 -88.441,20.2365 52.69,2.5858 116.697,-4.7968 159.381,7.7948 -18.55,4.8717 -98.409,4.3845 -147.614,6.5581 55.988,7.6823 113.961,11.3174 161.929,33.9897 L 824.111,73.6007 c 51.041,13.6409 75.774,21.9603 105.792,41.2603 L 841.424,94.1745 c 29.53,12.0295 66.331,27.0945 89.828,45.7945 -17.838,-6.109 -51.341,-20.199 -53.515,-18.288 -0.299,3.485 24.771,14.99 37.176,22.485 -32.566,-7.12 -93.763,-31.292 -94.662,-26.42 -2.324,5.172 23.309,16.339 34.927,24.509 -4.647,2.96 -13.267,2.586 -19.937,3.897 -4.834,4.872 -3.673,7.045 -21.511,4.572 -7.382,2.886 -16.751,3.485 -24.096,-0.262 l -4.61,2.548 c 0.563,3.523 1.162,5.696 -5.246,6.521 0.974,7.082 -1.012,9.931 -9.144,9.144 -1.349,5.209 -2.548,7.232 -7.832,7.869 -0.375,5.697 -6.746,4.76 -10.118,7.121 0.712,5.621 -4.272,9.218 -6.896,10.83 -1.499,6.82 -4.347,10.942 -9.481,11.43 -0.375,5.621 -3.11,8.207 -9.144,8.806 -11.43,-3.335 -23.534,-11.017 -31.329,-10.343 l 17.314,15.215 c 2.96,10.53 -1.087,17.089 -9.107,19.637 -1.911,6.595 -6.82,10.193 -12.741,8.769 -4.085,9.743 -9.182,9.481 -17.314,8.207 1.462,9.856 -5.434,12.367 -15.664,6.521 l -10.456,6.558 c -13.528,0.15 -22.41,-8.32 -33.615,-12.479 -10.08,4.834 -14.765,-1.05 -22.147,-1.574 -5.322,2.51 -17.951,-8.994 -26.907,-13.491 -11.43,5.846 -27.844,-3.036 -30.955,-1.537 -1.349,3.485 7.683,17.276 17.351,25.745 l -7.195,-1.536 -1.611,3.897 c -7.158,-1.611 -14.316,-2.848 -20.124,-8.094 -6.146,-2.736 -12.292,-5.172 -18.438,-7.945 l -0.974,12.105 c 1.086,7.495 6.52,13.303 3.297,22.447 18.588,17.426 37.138,28.893 59.735,38.637 l -8.506,2.585 c 49.242,18.101 99.158,27.844 156.72,35.264 l -10.831,8.057 c 4.797,1.724 11.58,6.484 16.04,11.543 -3.823,3.935 -23.01,4.234 -23.497,7.832 6.933,4.909 16.901,7.832 20.873,14.728 -4.459,5.171 -9.556,4.984 -14.352,7.457 l 9.143,10.493 c -6.333,4.984 -8.694,1.312 -13.041,1.949 l -2.623,5.883 c -9.893,7.195 -18.438,0.413 -29.305,1.274 l -5.959,5.247 c -8.282,2.286 -15.889,-0.75 -24.808,-9.144 -1.499,4.01 1.011,9.331 6.52,16.976 l -23.234,-2.248 -5.884,4.909 c -11.917,-2.623 -19.824,-4.909 -28.743,-10.193 -11.467,9.518 -29.605,-6.933 -44.37,-10.418 l -7.458,6.221 c -11.242,0.487 -21.136,-2.998 -32.678,-10.493 -2.885,1.199 -1.124,5.059 -1.686,7.57 l -5.172,-4.947 c 0.113,4.16 0.225,8.282 0.337,12.441 -3.26,0.862 -7.195,-6.295 -10.792,-9.443 l 6.483,17.913 -4.872,0.674 c 2.174,4.797 3.036,6.896 9.181,13.716 l -7.832,-3.935 -3.972,4.947 -5.471,-2.961 c 0.412,9.144 -2.811,15.965 1.611,25.446 l -3.897,0 0,9.144 -5.584,-6.521 -4.872,7.832 c -3.635,-0.037 -13.903,-8.731 -20.836,-13.078 l -5.546,11.167 c -4.197,-9.706 -7.683,-10.718 -11.505,-16.114 l -6.521,6.296 -6.445,-8.47 -18.7,13.042 c -0.075,7.307 4.834,12.929 0.075,19.899 -1.799,6.783 -6.296,11.879 -16.077,16.639 -4.385,1.049 -9.744,-0.562 -10.456,-6.221 -3.597,3.56 -6.52,1.124 -9.781,1.649 1.349,8.132 1.05,7.945 13.042,11.392 -10.981,2.623 -11.955,2.549 -16.939,-6.146 l -0.3,-11.392 c -5.171,-2.174 -7.682,-4.01 -8.881,-10.156 l 5.583,-15.027 c 4.31,-4.16 8.994,-8.32 16.639,-10.456 -6.408,-3.447 -4.197,-15.252 -19.262,-10.38 0.3,6.221 5.584,8.094 1.911,14.652 l -6.37,-11.617 c -1.125,-1.161 -5.209,-0.637 -6.296,-1.799 -6.146,-1.611 -11.58,2.436 -14.391,9.144 2.062,7.908 7.121,15.852 6.184,23.797 -2.324,8.469 -8.619,14.615 -16.302,14.765 -4.122,-3.485 -9.893,-2.286 -12.366,-10.455 6.97,4.871 12.928,7.082 19.899,0.637 l -7.907,-5.996 c -0.413,-5.697 -0.862,-4.685 1.349,-10.981 -3.448,-1.986 -7.908,-2.585 -10.343,-5.883 -4.048,2.024 -9.107,5.396 -13.154,6.108 -1.424,0.787 -1.199,2.886 -2.623,3.673 1.761,2.511 0.187,4.422 5.246,7.57 -6.446,1.087 -6.97,-1.574 -10.455,-2.324 2.698,4.722 3.035,5.472 13.078,5.209 -8.544,3.486 -15.065,1.274 -20.611,-3.597 -0.037,9.106 3.223,12.891 12.854,14.99 -9.931,2.436 -16.526,-4.422 -17.763,-13.978 -2.848,-1.312 -1.724,-5.921 -2.586,-8.882 0.937,-3.673 6.896,-11.205 9.181,-15.027 2.286,-3.785 4.497,-4.76 6.896,-7.795 5.096,-4.872 10.83,-5.734 16.564,-3.635 5.658,-2.586 11.467,-2.099 17.65,-6.483 6.184,-4.385 14.878,-5.097 19.525,-19.787 4.722,-9.406 4.31,-17.838 10.006,-37.625 0.412,-23.122 9.219,-51.565 25.295,-77.798 -6.408,-11.805 -37.812,-42.234 -49.841,-76.711 -27.132,-2.174 -53.589,2.623 -78.023,10.118 -4.834,6.296 -9.294,13.903 -18.475,18.213 l 5.509,9.144 c -7.833,-5.659 -12.667,-5.322 -17.164,-14.99 -1.461,-13.866 2.099,-22.747 14.99,-33.315 -2.773,-12.367 22.747,-40.098 50.291,-55.501 l -10.755,-7.57 c -3.485,3.448 -19.3,-13.453 -26.12,-24.358 -10.156,-4.048 -19.674,-11.43 -27.169,-20.499 l -28.369,-18.4 -16.789,-7.046 c -3.335,3.448 -5.321,-3.785 -9.331,-5.9955 -5.284,3.9345 -4.872,-6.1459 -8.169,-8.207 -7.046,1.7988 -13.454,-2.361 -20.199,-3.5601 -8.057,-3.5602 -20.462,-0.4497 -24.172,-1.6489 2.699,-3.6351 8.695,-6.5582 13.079,-9.8185 L 110.139,70.4528 C 94.5492,70.0031 77.9478,68.5416 65.6935,66.7803 67.6797,63.1827 80.3087,61.5713 87.6538,58.948 L 68.7665,51.528 C 56.7745,50.5162 38.112,49.1671 29.4553,45.4945 32.6781,42.7589 41.2599,44.033 47.1434,43.2835 L 27.5815,30.2423 4.04729,23.6841 24.0214,25.9701 C 16.6014,17.8006 15.5146,13.6409 0.0749498,1.83627 Z" clip-path="url(#clipEmfPath1)" style="fill:#f97316;fill-opacity:1;fill-rule:evenodd;stroke:none"/> </svg>